<svg id="Layer_1" data-name="Layer 1" xmlns="http://www.w3.org/2000/svg" viewBox="0 0 182 182"><defs><style>.cls-1{fill:#ff08a1;}.cls-2{fill:#e7c2aa;}.cls-3{fill:#f4d4bc;}.cls-4{fill:#f9ddca;}.cls-5{fill:#382116;}.cls-6{fill:#684529;}.cls-7{fill:#ba9c8e;}.cls-8{fill:#1a1c1c;}.cls-9{fill:#020202;opacity:0.1;}</style></defs><title>Martin</title><path class="cls-1" d="M181.72,91.28a90.32,90.32,0,0,1-16.22,51.77c-.47.68-1,1.36-1.45,2l-.41.54s0,0,0,0c-.52.68-1,1.36-1.57,2s-1.05,1.31-1.59,1.95l-.18.21c-.51.6-1,1.2-1.56,1.79s-1.15,1.28-1.74,1.9-1.19,1.25-1.8,1.86-1.44,1.42-2.18,2.11c-.51.48-1,1-1.57,1.44s-1.29,1.14-2,1.69-1.26,1.05-1.91,1.57c-1.29,1-2.61,2-4,3l-1.26.88c-.53.37-1.06.73-1.6,1.07s-1.14.75-1.72,1.11-1.45.9-2.19,1.33l-.19.11c-.69.41-1.39.8-2.1,1.19s-1.52.83-2.3,1.22l-1.37.68-1,.47-1.55.73c-1.07.48-2.15.94-3.24,1.39l-1.22.48q-.68.27-1.35.51l-1.12.41c-.83.3-1.66.58-2.5.85l-1.26.4c-.89.27-1.78.53-2.69.78l-1.14.3c-.94.25-1.9.48-2.86.7q-1.75.39-3.54.72l-.13,0c-.78.15-1.56.28-2.34.4-1,.16-2,.3-3.08.42q-1.11.14-2.22.24c-1.15.11-2.3.2-3.46.26-.77.05-1.55.08-2.32.11-1,0-1.93,0-2.9,0h0c-1.15,0-2.3,0-3.44-.07l-1.23-.05a90.54,90.54,0,0,1-68-36.35c-.15-.18-.28-.36-.42-.55h0c-.52-.7-1-1.42-1.52-2.14A90.72,90.72,0,0,1,91,.56h0A90.72,90.72,0,0,1,181.72,91.28Z"/><polygon class="cls-2" points="111.38 87.28 111.38 173.16 70.54 173.16 70.54 87.28 111.38 87.28 111.38 87.28"/><path class="cls-3" d="M62.68,72.52a2.22,2.22,0,0,1-1.89.71C59.73,73,57.4,57.55,58.67,56.86s3.05,1.55,3.05,1.55Z"/><path class="cls-3" d="M119.9,72.52a2.22,2.22,0,0,0,1.89.71c1.06-.22,3.39-15.67,2.11-16.36s-3.05,1.55-3.05,1.55Z"/><path class="cls-4" d="M91.19,24.79s-23.18,2.77-26,8.07-5.64,31.27-4.4,34.88,3.7,11,3.88,13.24,1.06,6.92,2.82,9.78,12.78,13,16.64,13.89c5.28,1.16,7-1.39,7-1.39Z"/><path class="cls-3" d="M91.09,24.79s23.18,2.77,26,8.07,5.64,31.27,4.4,34.88-3.7,11-3.88,13.24-1.06,6.92-2.82,9.78S102.1,103.5,98.23,104.29c-6.17,1.26-7.09-1-7.09-1Z"/><path class="cls-5" d="M91.22,30.38s7.69-.45,13.39.9,6.81,4,6.81,4,3.67,3.48,3.41,5.41c-.21,1.5-1.07,5-.53,7.17s3.56,5.82,3.92,7.16,2.14,12.41,2.14,12.41,4.45-15.63,2.14-24.58-7.66-15.32-11.4-18S91.22,21,91.22,21Z"/><path class="cls-5" d="M91.22,30.38s-8-.45-13.65.9-6.81,4-6.81,4-3.67,3.48-3.41,5.41c.21,1.5,1.07,5,.53,7.17S64.32,53.65,64,55s-2.14,12.41-2.14,12.41-4.45-15.63-2.14-24.58,7.66-15.32,11.4-18S91.22,21,91.22,21Z"/><path class="cls-6" d="M92.06,30.35a16.31,16.31,0,0,0-8.8-15.86c-7.52-4.06-16.56-2.74-20.2,2.13-4.84,6.47-5.1,9.51-4.93,19.68a27.55,27.55,0,0,0,3.94,14.65c3.47,6,6,8.35,6,8.35S66.54,41,67.4,36.8c.94-4.59,1.53-9.51,8.34-9.14,3,.16,1.83,3.62,1.83,3.62s2.86-.52,6.5-.85A63.41,63.41,0,0,1,92.06,30.35Z"/><path class="cls-6" d="M82,30.05s-.53-8.46,6.34-12.27C99,11.85,106.45,21.54,110.15,26s.17,9.28,5.29,13.43a37.41,37.41,0,0,0,11.86,6s-10.57,1.49-16.09-.88c-6.57-2.83-10.87-12.22-14-12.71s-8.63-1.33-8.63-1.33Z"/><path class="cls-7" d="M90.4,103.94s.34-4,.48-5a4.84,4.84,0,0,1,.16-.86s.06-.25.17-.25.17.91.26,1.8.55,4.4.55,4.4a4.82,4.82,0,0,1-.54-.37,2.45,2.45,0,0,1-.33-.45,2.38,2.38,0,0,1-.31.36A4.49,4.49,0,0,1,90.4,103.94Z"/><path class="cls-8" d="M165.5,143.05c-.47.68-1,1.36-1.45,2l-.41.54s0,0,0,0c-.52.68-1,1.36-1.57,2s-1.05,1.31-1.59,1.95l-.18.21c-.51.6-1,1.2-1.56,1.79s-1.15,1.28-1.74,1.9-1.19,1.25-1.8,1.86-1.44,1.42-2.18,2.11c-.51.48-1,1-1.57,1.44s-1.29,1.14-2,1.69-1.26,1.05-1.91,1.57c-1.29,1-2.61,2-4,3l-1.26.88c-.53.37-1.06.73-1.6,1.07s-1.14.75-1.72,1.11-1.45.9-2.19,1.33l-.19.11c-.69.41-1.39.8-2.1,1.19s-1.52.83-2.3,1.22l-1.37.68-1,.47-1.55.73c-1.07.48-2.15.94-3.24,1.39l-1.22.48q-.68.27-1.35.51l-1.12.41c-.83.3-1.66.58-2.5.85l-1.26.4c-.89.27-1.78.53-2.69.78l-1.14.3c-.94.25-1.9.48-2.86.7q-1.75.39-3.54.72l-.13,0c-.78.15-1.56.28-2.34.4-1,.16-2,.3-3.08.42q-1.11.14-2.22.24c-1.15.11-2.3.2-3.46.26-.77.05-1.55.08-2.32.11-1,0-1.93,0-2.9,0h0c-1.15,0-2.3,0-3.44-.07l-1.23-.05a90.54,90.54,0,0,1-68-36.35c-.15-.18-.28-.36-.42-.55h0c-.52-.7-1-1.42-1.52-2.14a53.79,53.79,0,0,1,3.72-10c5.71-10.26,20.7-10.31,32.75-14.84,12.67-4.76,17.11-11.53,17.72-12,0,0,.27,5.3.44,7.6,1.22,16,16.43,45.93,16.43,45.93s2.94,6.54,5.07,6.39c2.43,0,5.12-6.85,5.12-6.85s13.06-32.14,13.78-47.91c.13-2.87,0-5.16,0-5.16s18.46,13.23,26.07,15.81,18.86,6.39,25.4,16A30,30,0,0,1,165.5,143.05Z"/><path class="cls-9" d="M181.72,91.28a90.55,90.55,0,0,1-16.52,52.27l-.41.57h0l-.7.95q-2,2.76-4.28,5.36l-.76.87c-.29.34-.59.67-.89,1s-.54.59-.81.88-.77.83-1.16,1.23a91.33,91.33,0,0,1-8.14,7.46l-1.17.93-.22.18-1.33,1L143.9,165c-.49.35-1,.7-1.48,1s-.71.49-1.07.73-.65.43-1,.64c-.87.57-1.76,1.12-2.64,1.66l-1.44.84q-.91.52-1.83,1c-.45.26-.9.5-1.36.73s-1.08.56-1.62.83l-1.5.73c-.41.2-.83.39-1.26.58l-1.36.61-.24.11c-.52.22-1,.45-1.58.66l-1.17.47-1.13.44c-.69.26-1.39.52-2.08.76-.51.19-1,.36-1.55.53s-1.17.38-1.76.56-1.39.42-2.08.61c-.45.14-.91.26-1.36.38q-1.12.3-2.27.57l-.71.17-.76.17h0l-1.37.29c-.6.13-1.2.24-1.81.35s-1.18.21-1.77.3c-.43.08-.86.14-1.29.2s-.85.13-1.28.18l-.27,0-1.6.19c-.86.1-1.72.18-2.58.25l-.6,0-.92.06c-.52,0-1,.07-1.58.09l-1,0c-.5,0-1,0-1.49,0L92,182h-.86V.56h.58c.77,0,1.54,0,2.3,0h.12l2.15.1h.15c.74,0,1.47.09,2.19.15s1.53.14,2.28.22,1.51.17,2.25.27l2.24.32c.75.12,1.49.25,2.22.39s1.48.28,2.21.43,1.46.32,2.18.49,1.76.43,2.63.67l1.59.44.36.1q.93.27,1.86.57c.79.24,1.57.5,2.34.78,1.31.44,2.6.93,3.89,1.45.8.32,1.6.65,2.38,1l1.66.74c1.33.6,2.64,1.24,3.93,1.92l1.93,1c.69.37,1.37.76,2,1.16s1.16.68,1.73,1q1.86,1.13,3.63,2.35l.09.06c.57.39,1.15.79,1.71,1.2s1.17.85,1.75,1.28l1.72,1.33c1.14.89,2.24,1.82,3.33,2.77.55.48,1.09,1,1.62,1.45s1.06,1,1.58,1.48,1,1,1.55,1.52,1,1,1.51,1.56,1,1.05,1.48,1.59,1,1.08,1.43,1.62a89.19,89.19,0,0,1,6.46,8.48c.2.28.39.57.57.86.62.92,1.21,1.86,1.79,2.82.06.09.11.18.16.27.36.58.7,1.17,1,1.76,1.07,1.86,2.05,3.75,3,5.68.32.66.63,1.33.93,2A87.52,87.52,0,0,1,177,62.18c.24.71.47,1.41.69,2.12.46,1.47.88,3,1.25,4.44.19.7.36,1.41.52,2.12A89.45,89.45,0,0,1,181.25,82c.06.55.11,1.09.15,1.64Q181.71,87.42,181.72,91.28Z"/></svg>